<?xml version="1.0" encoding="UTF-8"?>
<!DOCTYPE svg PUBLIC "-//W3C//DTD SVG 1.0//EN" "http://www.w3.org/TR/2001/REC-SVG-20010904/DTD/svg10.dtd">
<!-- Creator: CorelDRAW 2020 (64 Bit Versão de avaliação) -->
<svg xmlns="http://www.w3.org/2000/svg" xml:space="preserve" width="56.7503mm" height="11.2377mm" version="1.0" style="shape-rendering:geometricPrecision; text-rendering:geometricPrecision; image-rendering:optimizeQuality; fill-rule:evenodd; clip-rule:evenodd"
viewBox="0 0 2207.62 437.15"
 xmlns:xlink="http://www.w3.org/1999/xlink"
 xmlns:xodm="http://www.corel.com/coreldraw/odm/2003">
 <defs>
  <style type="text/css">
   <![CDATA[
    .fil0 {fill:#2A303A}
   ]]>
  </style>
 </defs>
 <g id="Camada_x0020_1">
  <metadata id="CorelCorpID_0Corel-Layer"/>
  <path class="fil0" d="M234.97 202.18c0,69.59 6.82,117.29 58.54,170.97 48.1,49.93 94.45,64 160.04,64l0 -54.64c-138.44,0 -214.27,-164.27 -121.62,-269.16 31.03,-35.13 69.42,-53.24 121.62,-53.24l0 -60.11c-117.7,0 -218.58,97.84 -218.58,202.18z"/>
  <polygon class="fil0" points="-0,27.32 120.22,218.58 -0,415.3 54.64,437.15 191.26,218.58 49.18,0 "/>
  <path class="fil0" d="M1218.56 300.54c12.06,0 52.39,32.79 -38.25,32.79 -19.32,0 -48.79,-32.79 38.25,-32.79zm-49.18 -81.97l0 -5.46c0,-25.92 49.18,-25.92 49.18,0l0 5.46c0,25.92 -49.18,25.92 -49.18,0zm71.04 -27.32l0 0zm0 0l21.64 6.13 0.21 -27.99c-38.15,0 -80.51,-3.19 -104.08,10.68 -30.02,17.66 -25.69,53.92 0.26,71.29 -16.9,25.23 -27.03,16.97 -5.47,49.18 -50.29,13.43 -18.66,75.56 68.17,57.28 69.85,-14.71 57.48,-84.33 -2.73,-84.52 -31.09,-0.1 -40.79,19.91 -49.05,-11.01 62.21,0 97.27,-16.35 71.04,-71.04z"/>
  <path class="fil0" d="M1344.25 218.58c0,101.9 140.63,139.88 169.4,16.39l-32.61 -6.29c-5.76,67.98 -104,86.62 -104,-26.5 0,-61.39 87.31,-81.82 103.83,-10.93 8.72,0 55.93,8.17 15.14,-42.37 -47.72,-59.14 -151.76,-38.94 -151.76,69.69z"/>
  <polygon class="fil0" points="573.77,306.01 601.09,306.01 601.09,224.04 688.52,224.04 688.52,306.01 721.3,306.01 721.3,120.22 688.52,120.22 688.52,196.72 601.09,196.72 601.09,120.22 573.77,120.22 "/>
  <path class="fil0" d="M1715.83 240.43c0,-66.02 71.04,-60.63 71.04,0 0,55.49 -71.04,60.76 -71.04,0zm71.04 -49.18l-4.82 -6.11c-38.81,-40.01 -99,-4.56 -99,49.82 0,53.76 45.95,93.44 85.18,68.79 13.23,-8.31 9.7,-6.57 13.18,-19.61l5.47 21.86 27.32 0 0 -185.79 -27.32 0 0 71.04z"/>
  <path class="fil0" d="M1912.55 191.26c16.76,0 23.62,13.48 27.32,27.32l-60.11 0c4.61,-19.78 8.51,-27.32 32.79,-27.32zm-5.47 120.21c32.21,0 59.36,-15.46 60.11,-49.18 -58.79,0 -2.91,21.86 -65.57,21.86 -20.82,0 -25.68,-23.98 -27.32,-43.72l98.36 0c-1.47,-66.03 -31.53,-71.04 -71.04,-71.04 -74.04,0 -79.99,142.07 5.47,142.07z"/>
  <path class="fil0" d="M1633.86 234.97c0,85.84 -106.11,45.25 -67.83,-23.93 18.55,-33.54 67.83,-18.03 67.83,23.93zm-103.82 0c0,45.12 23.27,76.5 65.57,76.5 93.65,0 85.47,-142.07 10.93,-142.07 -36.3,0 -76.5,4.19 -76.5,65.57z"/>
  <path class="fil0" d="M2098.34 207.65c0,65.29 81.96,21.27 81.96,60.11 0,23.43 -51.03,28.03 -60.11,-10.93 -14.76,1.23 -14.87,2.56 -27.32,5.47 4.81,57.77 114.75,80.75 114.75,-9.04 -1.18,-15.65 -7.91,-22.34 -39.74,-27.72 -87.71,-14.81 -19.28,-66.88 12.42,-6.96 9.64,-4.63 17.68,-6.3 27.32,-10.93 -29.58,-55.91 -84.83,-40.36 -98.52,-27.48 -8.08,7.61 -10.77,11.86 -10.77,27.48z"/>
  <path class="fil0" d="M994.52 306.01l27.32 0c0,-48.12 -3.93,-63.49 5.46,-103.83 72.04,-34.57 54.65,61.98 54.65,103.83l27.32 0c0,-62.17 13.87,-188.05 -87.43,-120.22l0 -16.39 -27.32 0 0 136.61z"/>
  <path class="fil0" d="M825.13 306.01l32.79 0c0,-95.48 -10.4,-109.29 49.18,-109.29l0 -27.32c-37.5,0 -42.28,-4 -49.18,21.86l-5.46 -21.86 -27.32 0 0 136.61z"/>
  <path class="fil0" d="M1999.98 306.01l27.32 0c0,-93.24 -9.98,-109.29 54.65,-109.29 -1.14,-50.85 -38.57,-21.69 -54.65,-10.93l0 -16.39 -27.32 0 0 136.61z"/>
  <polygon class="fil0" points="928.95,306.01 956.27,306.01 956.27,169.4 928.95,169.4 "/>
  <circle class="fil0" cx="942.61" cy="138.11" r="17.42"/>
  <circle class="fil0" cx="776.22" cy="138.11" r="17.42"/>
  <polygon class="fil0" points="762.56,306.01 789.88,306.01 789.88,169.4 762.56,169.4 "/>
 </g>
</svg>
